<svg id="instagram-logo" xmlns="http://www.w3.org/2000/svg" width="39" height="39" viewBox="0 0 39 39">
  <path id="Tracé_2" data-name="Tracé 2" d="M28.237,0H10.762A10.775,10.775,0,0,0,0,10.763V28.237A10.775,10.775,0,0,0,10.762,39H28.237A10.775,10.775,0,0,0,39,28.237V10.763A10.775,10.775,0,0,0,28.237,0Zm7.3,28.237a7.311,7.311,0,0,1-7.3,7.3H10.762a7.31,7.31,0,0,1-7.3-7.3V10.763a7.311,7.311,0,0,1,7.3-7.3H28.237a7.311,7.311,0,0,1,7.3,7.3V28.237Z" fill="#fbfbfb"/>
  <path id="Tracé_3" data-name="Tracé 3" d="M51.017,40.97A10.049,10.049,0,1,0,61.067,51.019,10.061,10.061,0,0,0,51.017,40.97Zm0,16.638a6.589,6.589,0,1,1,6.589-6.589A6.6,6.6,0,0,1,51.017,57.608Z" transform="translate(-31.517 -31.519)" fill="#fbfbfb"/>
  <path id="Tracé_4" data-name="Tracé 4" d="M121.459,28.251a2.536,2.536,0,1,0,1.795.743A2.548,2.548,0,0,0,121.459,28.251Z" transform="translate(-91.488 -21.734)" fill="#fbfbfb"/>
</svg>
