<svg xmlns="http://www.w3.org/2000/svg" width="39" height="39" viewBox="0 0 39 39">
  <g id="linkedin-logo" transform="translate(0)">
    <path id="LinkedIn__x28_alt_x29_" d="M36.122,0H2.884A2.839,2.839,0,0,0,0,2.794V36.2A2.84,2.84,0,0,0,2.884,39H36.122A2.839,2.839,0,0,0,39,36.2V2.794A2.838,2.838,0,0,0,36.122,0Zm-24.3,32.646H5.933V15.038h5.893ZM8.88,12.632H8.84a3.052,3.052,0,1,1,.077-6.084,3.053,3.053,0,1,1-.037,6.084ZM33.066,32.646H27.176V23.225c0-2.367-.854-3.982-2.984-3.982a3.218,3.218,0,0,0-3.022,2.142,3.935,3.935,0,0,0-.2,1.426v9.835h-5.89s.077-15.957,0-17.608h5.89v2.5a5.849,5.849,0,0,1,5.307-2.911c3.877,0,6.784,2.515,6.784,7.926ZM20.937,17.59c.01-.017.024-.036.038-.056v.056Z" transform="translate(-0.002)" fill="#fbfbfb"/>
  </g>
</svg>
