<svg xmlns="http://www.w3.org/2000/svg" viewBox="0 0 134.28 31.97"><defs><style>.cls-1{fill:#231f20;}.cls-2{fill:none;stroke:#231f20;stroke-miterlimit:10;}</style></defs><title>Fichier 1</title><g id="Calque_2" data-name="Calque 2"><g id="Calque_1-2" data-name="Calque 1"><path d="M35.44,18.86a4.92,4.92,0,0,0-1.67.28,4.1,4.1,0,0,0-1.41.84,4.15,4.15,0,0,0-1,1.36A4.54,4.54,0,0,0,31,23.2a5,5,0,0,0,.19,1.43,4.73,4.73,0,0,0,.53,1.16,3.93,3.93,0,0,0,.78.89,4.59,4.59,0,0,0,1,.64,4.88,4.88,0,0,0,1.05.38,4.94,4.94,0,0,0,1.07.12,5.82,5.82,0,0,0,.61,0,5.35,5.35,0,0,0,.56-.07,4.43,4.43,0,0,0,.58-.14l.69-.21.13.4a6,6,0,0,1-.78.29c-.28.08-.56.14-.83.19s-.54.08-.79.1l-.67,0a6.26,6.26,0,0,1-1.45-.16,6,6,0,0,1-1.29-.46A4.77,4.77,0,0,1,31.27,27a4.54,4.54,0,0,1-.84-1,4.36,4.36,0,0,1-.53-1.16,4.52,4.52,0,0,1-.19-1.34,5.17,5.17,0,0,1,.19-1.44,4.82,4.82,0,0,1,1.39-2.31,4.81,4.81,0,0,1,1.13-.8,6.46,6.46,0,0,1,1.36-.5,7.26,7.26,0,0,1,1.57-.17,12.05,12.05,0,0,1,1.82.12c.52.08,1,.18,1.37.28l-.2,2.31h-.42V21a3.08,3.08,0,0,0-.09-.72,1.43,1.43,0,0,0-.35-.68,1.86,1.86,0,0,0-.75-.5A3.58,3.58,0,0,0,35.44,18.86Z"/><path d="M39.48,25.48a3.6,3.6,0,0,1,.24-1.29,3.45,3.45,0,0,1,1.76-1.92,3.36,3.36,0,0,1,1.45-.3,3.42,3.42,0,0,1,1.31.22,2.33,2.33,0,0,1,.88.58,2.26,2.26,0,0,1,.5.86,3.6,3.6,0,0,1,.16,1.05,3.78,3.78,0,0,1-.27,1.42,3.57,3.57,0,0,1-.73,1.16,3.4,3.4,0,0,1-1.09.78,3.16,3.16,0,0,1-1.34.29A3.5,3.5,0,0,1,41,28.09a2.26,2.26,0,0,1-1.34-1.54A4.24,4.24,0,0,1,39.48,25.48Zm3.14-3.11a1.77,1.77,0,0,0-.9.22,2,2,0,0,0-.66.61,2.85,2.85,0,0,0-.41.88,4,4,0,0,0-.14,1,4.29,4.29,0,0,0,.13,1A3,3,0,0,0,41,27a2,2,0,0,0,.67.65,1.82,1.82,0,0,0,1,.24,2,2,0,0,0,.88-.18,1.92,1.92,0,0,0,.66-.54,2.32,2.32,0,0,0,.41-.85,3.83,3.83,0,0,0,.14-1.11,4.07,4.07,0,0,0-.12-1,3,3,0,0,0-.39-.93,2.11,2.11,0,0,0-.66-.7A1.64,1.64,0,0,0,42.62,22.37Z"/><path d="M57.65,28.19l-.67,0-.6,0a5.14,5.14,0,0,0-.55.06,3.58,3.58,0,0,0-.53.11c0-.27.08-.57.13-.91s.09-.68.12-1,.07-.68.09-1,0-.62,0-.87a5.36,5.36,0,0,0,0-.7,2.16,2.16,0,0,0-.17-.62,1.22,1.22,0,0,0-.35-.45,1,1,0,0,0-.58-.16,1.25,1.25,0,0,0-.46.09,2.58,2.58,0,0,0-.44.22,3.15,3.15,0,0,0-.41.31l-.36.32v.21a7.57,7.57,0,0,1,0,.81l-.06.84c0,.27,0,.54-.07.79s0,.49,0,.7a1.72,1.72,0,0,0,.05.44.58.58,0,0,0,.15.28.43.43,0,0,0,.26.13,1.38,1.38,0,0,0,.38,0h.38v.33l-.67,0-.59,0a5,5,0,0,0-.56.06,3.58,3.58,0,0,0-.53.11c0-.27.08-.57.13-.91s.09-.68.13-1,.07-.68.09-1,0-.62,0-.87a5.36,5.36,0,0,0,0-.7,2.16,2.16,0,0,0-.17-.62,1.24,1.24,0,0,0-.36-.45.94.94,0,0,0-.57-.16,1.37,1.37,0,0,0-.49.09,2.46,2.46,0,0,0-.45.25,3.39,3.39,0,0,0-.42.33l-.38.33c0,.22,0,.45-.05.69l0,.73c0,.24,0,.47,0,.7s0,.43,0,.63,0,.54,0,.73a1.13,1.13,0,0,0,.1.43.45.45,0,0,0,.25.22,1.53,1.53,0,0,0,.47.05h.36v.33H50c-.43,0-.83,0-1.19,0a5.68,5.68,0,0,0-1,.18c.1-.68.19-1.37.25-2.09s.09-1.45.09-2.2a4.58,4.58,0,0,0,0-.53,1.12,1.12,0,0,0-.13-.47.92.92,0,0,0-.34-.34,1.42,1.42,0,0,0-.64-.13h-.13v-.32l.58,0,.52-.06c.17,0,.35-.06.54-.1L49.1,22l-.12.66a6.36,6.36,0,0,0-.1.64c.23-.21.45-.4.66-.56a4,4,0,0,1,.6-.41,3.25,3.25,0,0,1,.59-.25,2.61,2.61,0,0,1,.64-.08,2.08,2.08,0,0,1,.4.05,1.32,1.32,0,0,1,.41.17,1.16,1.16,0,0,1,.36.37,1.67,1.67,0,0,1,.25.6c.22-.2.43-.37.62-.52a5.64,5.64,0,0,1,.57-.38,3.34,3.34,0,0,1,.57-.22,2.92,2.92,0,0,1,.61-.07,1.67,1.67,0,0,1,.47.07,1.14,1.14,0,0,1,.48.26,1.52,1.52,0,0,1,.37.57,2.54,2.54,0,0,1,.15,1q0,.39,0,.81c0,.28,0,.56-.07.84s0,.54-.07.79,0,.49,0,.7a1.72,1.72,0,0,0,0,.44.67.67,0,0,0,.14.28.5.5,0,0,0,.26.13,1.51,1.51,0,0,0,.39,0h.38Z"/><path d="M69.19,28.19l-.68,0-.59,0a4.63,4.63,0,0,0-.55.06,3.45,3.45,0,0,0-.54.11c0-.27.08-.57.13-.91s.09-.68.12-1,.07-.68.09-1,0-.62,0-.87a5.36,5.36,0,0,0,0-.7,2.16,2.16,0,0,0-.17-.62,1.22,1.22,0,0,0-.35-.45.94.94,0,0,0-.57-.16,1.27,1.27,0,0,0-.47.09,2.58,2.58,0,0,0-.44.22,3.15,3.15,0,0,0-.41.31l-.36.32v.21q0,.39,0,.81c0,.28,0,.56-.07.84s-.05.54-.07.79,0,.49,0,.7a1.78,1.78,0,0,0,0,.44.58.58,0,0,0,.15.28.43.43,0,0,0,.26.13,1.41,1.41,0,0,0,.39,0h.38v.33l-.68,0-.59,0a4.63,4.63,0,0,0-.55.06,3.45,3.45,0,0,0-.54.11c0-.27.09-.57.13-.91s.09-.68.13-1,.07-.68.09-1,0-.62,0-.87a5.36,5.36,0,0,0,0-.7,1.88,1.88,0,0,0-.17-.62,1.22,1.22,0,0,0-.35-.45,1,1,0,0,0-.58-.16,1.32,1.32,0,0,0-.48.09,2.55,2.55,0,0,0-.46.25,3.39,3.39,0,0,0-.42.33l-.38.33c0,.22,0,.45,0,.69s0,.49,0,.73l0,.7c0,.22,0,.43,0,.63s0,.54,0,.73a1.13,1.13,0,0,0,.1.43.44.44,0,0,0,.26.22,1.46,1.46,0,0,0,.46.05h.37v.33H61.5c-.43,0-.83,0-1.19,0a5.84,5.84,0,0,0-1,.18c.1-.68.19-1.37.25-2.09s.09-1.45.09-2.2a4.58,4.58,0,0,0,0-.53,1.12,1.12,0,0,0-.13-.47.92.92,0,0,0-.34-.34,1.39,1.39,0,0,0-.64-.13h-.12v-.32l.57,0,.52-.06c.17,0,.35-.06.54-.1l.65-.18c0,.21-.09.43-.13.66a6.36,6.36,0,0,0-.1.64c.23-.21.45-.4.66-.56a4.6,4.6,0,0,1,.6-.41,3.06,3.06,0,0,1,.6-.25A2.59,2.59,0,0,1,62.9,22a2,2,0,0,1,.4.05,1.48,1.48,0,0,1,.42.17,1.41,1.41,0,0,1,.36.37,1.87,1.87,0,0,1,.24.6c.22-.2.43-.37.62-.52s.39-.27.57-.38a3.34,3.34,0,0,1,.57-.22,2.92,2.92,0,0,1,.61-.07,1.67,1.67,0,0,1,.47.07,1.14,1.14,0,0,1,.48.26,1.52,1.52,0,0,1,.37.57,2.34,2.34,0,0,1,.16,1q0,.39,0,.81c0,.28,0,.56-.07.84s0,.54-.07.79,0,.49,0,.7a1.78,1.78,0,0,0,0,.44.58.58,0,0,0,.15.28.43.43,0,0,0,.26.13,1.38,1.38,0,0,0,.38,0h.39Z"/><path d="M74.36,24.54c-.5,0-1,0-1.5-.05l-1.57-.13a4.4,4.4,0,0,0,0,.62,3.61,3.61,0,0,0,.19,1.25,2,2,0,0,0,.5.79,1.62,1.62,0,0,0,.7.39,2.8,2.8,0,0,0,.82.11,4.28,4.28,0,0,0,.52,0,3.07,3.07,0,0,0,.5-.13,3.45,3.45,0,0,0,.51-.21c.17-.09.35-.21.55-.34l.18.27a6.5,6.5,0,0,1-1.38.92,3.29,3.29,0,0,1-1.46.33,2.7,2.7,0,0,1-1.12-.23,2.59,2.59,0,0,1-1.36-1.54,3,3,0,0,1-.19-1.08,3.74,3.74,0,0,1,.26-1.39A3.49,3.49,0,0,1,71.15,23a3.42,3.42,0,0,1,1-.74,2.77,2.77,0,0,1,1.2-.27,2.34,2.34,0,0,1,1.05.21,1.82,1.82,0,0,1,.67.55,2,2,0,0,1,.36.73,3,3,0,0,1,.11.77v.14a.59.59,0,0,1,0,.13C75.12,24.53,74.73,24.54,74.36,24.54ZM73.1,22.37a1.61,1.61,0,0,0-.63.13,1.77,1.77,0,0,0-.5.36,2.19,2.19,0,0,0-.37.53,3.81,3.81,0,0,0-.24.64l.83,0h1.75l.59,0V24a2,2,0,0,0-.11-.67,1.53,1.53,0,0,0-.29-.5,1.29,1.29,0,0,0-.45-.31A1.58,1.58,0,0,0,73.1,22.37Z"/><path d="M80.59,23.41a5.34,5.34,0,0,1,.37-2A4.73,4.73,0,0,1,82,19.79a5,5,0,0,1,1.63-1.06,5.74,5.74,0,0,1,2.11-.38,4.55,4.55,0,0,1,1.31.19,4.24,4.24,0,0,1,1.09.53,4.41,4.41,0,0,1,.88.79,5.77,5.77,0,0,1,.64,1A5.5,5.5,0,0,1,90.06,22a5.27,5.27,0,0,1,.13,1.18,5.79,5.79,0,0,1-.38,2.12,4.92,4.92,0,0,1-1,1.65A4.42,4.42,0,0,1,87.3,28a4.29,4.29,0,0,1-1.8.39,5.46,5.46,0,0,1-1.51-.2,4.57,4.57,0,0,1-2.19-1.37,4.92,4.92,0,0,1-.67-1,5.16,5.16,0,0,1-.41-1.16A5.56,5.56,0,0,1,80.59,23.41Zm1.27-.15A5.84,5.84,0,0,0,82.11,25a4.72,4.72,0,0,0,.71,1.48,3.5,3.5,0,0,0,1.15,1,3.05,3.05,0,0,0,1.55.39A3,3,0,0,0,87,27.54,2.91,2.91,0,0,0,88,26.63a4.22,4.22,0,0,0,.64-1.35,6.29,6.29,0,0,0,.21-1.66,6.65,6.65,0,0,0-.25-1.87,5.14,5.14,0,0,0-.71-1.51,3.48,3.48,0,0,0-1.09-1,2.71,2.71,0,0,0-1.39-.37,3.72,3.72,0,0,0-.81.09,2.88,2.88,0,0,0-.82.29,3.11,3.11,0,0,0-.75.53,3.18,3.18,0,0,0-.63.83A4.23,4.23,0,0,0,82,21.74,6.33,6.33,0,0,0,81.86,23.26Z"/><path d="M93.61,22q0,.13-.06.3l-.06.35-.06.36c0,.12,0,.22-.05.32a6.36,6.36,0,0,1,.7-.62,6.59,6.59,0,0,1,.63-.41,2.77,2.77,0,0,1,.52-.23,1.34,1.34,0,0,1,.39-.07.93.93,0,0,1,.32.05.45.45,0,0,1,.2.14.45.45,0,0,1,.11.17.67.67,0,0,1,0,.18.77.77,0,0,1-.11.39,1.72,1.72,0,0,1-.24.34,1,1,0,0,0-.39-.28,1.08,1.08,0,0,0-.44-.09,1.45,1.45,0,0,0-.41.06,2.14,2.14,0,0,0-.42.16,3.09,3.09,0,0,0-.42.25,2.24,2.24,0,0,0-.37.32c0,.46-.06.92-.1,1.36s0,.9,0,1.38a7.56,7.56,0,0,0,0,.76,1.11,1.11,0,0,0,.12.44.41.41,0,0,0,.26.21,1.6,1.6,0,0,0,.48.05h.32v.33H94.4c-.43,0-.82,0-1.16,0a5.89,5.89,0,0,0-1,.18c.11-.75.2-1.49.27-2.24s.09-1.48.09-2.19a4.85,4.85,0,0,0,0-.58,1,1,0,0,0-.16-.41.68.68,0,0,0-.34-.25,1.57,1.57,0,0,0-.58-.09h-.15v-.32l.59-.05.5,0,.54-.1A6.81,6.81,0,0,0,93.61,22Z"/><path d="M99.93,22a2.84,2.84,0,0,1,1.19.22,1.77,1.77,0,0,1,.77.63,3.53,3.53,0,0,1,.82-.63,1.46,1.46,0,0,1,.61-.16.52.52,0,0,1,.42.15.45.45,0,0,1,.13.32,1,1,0,0,1-.05.29.82.82,0,0,1-.19.28,1.5,1.5,0,0,0-.32-.18,1.2,1.2,0,0,0-.43-.07,1.1,1.1,0,0,0-.42.09,3.48,3.48,0,0,0-.43.22c0,.09,0,.2.07.32a2.24,2.24,0,0,1,0,.34,2.3,2.3,0,0,1-.2.94,2.55,2.55,0,0,1-.55.79,2.64,2.64,0,0,1-.81.53,2.55,2.55,0,0,1-1,.2H99.1a3,3,0,0,0-.24.28,1.4,1.4,0,0,0-.16.26.53.53,0,0,0-.08.23.29.29,0,0,0,.07.19.51.51,0,0,0,.21.13,3,3,0,0,0,.4.11l.59.1,1.08.21a3.49,3.49,0,0,1,.81.27,1.22,1.22,0,0,1,.5.45,1.36,1.36,0,0,1,.17.71,1.72,1.72,0,0,1-.15.69,2.66,2.66,0,0,1-.4.65,3.75,3.75,0,0,1-.61.58,4.24,4.24,0,0,1-.77.46,5.09,5.09,0,0,1-.88.31,4.33,4.33,0,0,1-1,.11,3.49,3.49,0,0,1-1-.13,1.83,1.83,0,0,1-.67-.33,1.17,1.17,0,0,1-.36-.48,1.56,1.56,0,0,1-.1-.57,1.53,1.53,0,0,1,0-.41,1.4,1.4,0,0,1,.2-.46,2.32,2.32,0,0,1,.43-.49,4.16,4.16,0,0,1,.76-.51l.17.27a1.41,1.41,0,0,0-.47.53,1.7,1.7,0,0,0-.15.73,1.1,1.1,0,0,0,.15.59,1.39,1.39,0,0,0,.4.4,2,2,0,0,0,.58.22,2.84,2.84,0,0,0,.66.07,2.74,2.74,0,0,0,.78-.12,2.59,2.59,0,0,0,.73-.35,2,2,0,0,0,.55-.57,1.37,1.37,0,0,0,.21-.75,1,1,0,0,0-.07-.4.58.58,0,0,0-.21-.28,1.49,1.49,0,0,0-.4-.2,5,5,0,0,0-.61-.15l-1.66-.32A1.64,1.64,0,0,1,98,28a.59.59,0,0,1-.23-.5.88.88,0,0,1,.08-.33,2.08,2.08,0,0,1,.22-.38,3.27,3.27,0,0,1,.28-.37l.27-.32a1.83,1.83,0,0,1-.53-.21,1.55,1.55,0,0,1-.45-.36,1.79,1.79,0,0,1-.31-.52,2.08,2.08,0,0,1-.11-.69,2.25,2.25,0,0,1,.21-1A2,2,0,0,1,98,22.6a2.75,2.75,0,0,1,.86-.47A3.5,3.5,0,0,1,99.93,22Zm-.29.4a1.25,1.25,0,0,0-.59.14,1.34,1.34,0,0,0-.43.39,1.61,1.61,0,0,0-.27.54,2.25,2.25,0,0,0-.09.64,2.72,2.72,0,0,0,.08.63,2.1,2.1,0,0,0,.25.57,1.49,1.49,0,0,0,.43.4,1.28,1.28,0,0,0,.63.15,1.22,1.22,0,0,0,1-.45,1.91,1.91,0,0,0,.36-1.22,2.77,2.77,0,0,0-.08-.61,1.94,1.94,0,0,0-.25-.57,1.5,1.5,0,0,0-.43-.44A1.13,1.13,0,0,0,99.64,22.37Z"/><path d="M104.14,27.11a1.21,1.21,0,0,1,.21-.71,1.8,1.8,0,0,1,.55-.51,3.26,3.26,0,0,1,.75-.36,8.48,8.48,0,0,1,.83-.22l.79-.12.6-.05c0-.21,0-.41,0-.6s0-.38,0-.55a4.23,4.23,0,0,0-.05-.63,1.3,1.3,0,0,0-.19-.52,1,1,0,0,0-.38-.37,1.37,1.37,0,0,0-.65-.13,1.25,1.25,0,0,0-.51.1,1.49,1.49,0,0,0-.41.28,1.29,1.29,0,0,0-.26.42,1.25,1.25,0,0,0-.1.51,1.49,1.49,0,0,0,0,.21c0,.07,0,.15,0,.23a.44.44,0,0,1-.21.13.65.65,0,0,1-.27.05.69.69,0,0,1-.2,0,.42.42,0,0,1-.17-.1.57.57,0,0,1-.12-.18.68.68,0,0,1,0-.27,1.09,1.09,0,0,1,.27-.71,2.41,2.41,0,0,1,.67-.54,3.84,3.84,0,0,1,.89-.35,3.74,3.74,0,0,1,.91-.12,2,2,0,0,1,1.28.38,1.51,1.51,0,0,1,.46,1.24c0,.25,0,.52,0,.82s0,.59-.08.88,0,.57-.07.83,0,.48,0,.65a1.58,1.58,0,0,0,.11.68.35.35,0,0,0,.33.24.46.46,0,0,0,.26-.08,1.1,1.1,0,0,0,.25-.19,1.45,1.45,0,0,0,.21-.22L110,27l.26.22a4,4,0,0,1-.45.55,2.24,2.24,0,0,1-.4.33,1.18,1.18,0,0,1-.36.17,2,2,0,0,1-.34,0,1,1,0,0,1-.44-.1A.91.91,0,0,1,108,28a1.5,1.5,0,0,1-.19-.38,1.62,1.62,0,0,1-.07-.44,2.66,2.66,0,0,1-.33.44,2.25,2.25,0,0,1-.43.38,2.5,2.5,0,0,1-.57.27,2.61,2.61,0,0,1-.72.1,2,2,0,0,1-.76-.12,1.17,1.17,0,0,1-.47-.31,1,1,0,0,1-.23-.4A1.39,1.39,0,0,1,104.14,27.11Zm1.88.71a1.41,1.41,0,0,0,.76-.19,1.75,1.75,0,0,0,.52-.53,2.72,2.72,0,0,0,.34-.75,4.69,4.69,0,0,0,.19-.86l-.52.05c-.2,0-.39.05-.59.09a3.7,3.7,0,0,0-.57.16,2,2,0,0,0-.5.26,1.16,1.16,0,0,0-.35.38,1,1,0,0,0-.13.54.82.82,0,0,0,.09.42.73.73,0,0,0,.21.27,1,1,0,0,0,.28.13Z"/><path d="M118.07,28.19l-.68,0-.59,0a4.87,4.87,0,0,0-.55.06,3.58,3.58,0,0,0-.53.11c0-.27.08-.57.13-.91l.12-1c0-.35.07-.68.09-1s0-.62,0-.87,0-.47,0-.7a1.88,1.88,0,0,0-.16-.62,1.13,1.13,0,0,0-.39-.45,1.39,1.39,0,0,0-.73-.16,1.7,1.7,0,0,0-.54.09,2.71,2.71,0,0,0-.52.24,3.94,3.94,0,0,0-.48.31l-.39.33c0,.22,0,.46,0,.7s0,.49,0,.74l0,.71c0,.22,0,.43,0,.63s0,.54,0,.73a1.1,1.1,0,0,0,.12.43.42.42,0,0,0,.25.22,1.6,1.6,0,0,0,.48.05h.34v.33c-.5,0-.93,0-1.3,0a6,6,0,0,0-1.06.18c.11-.68.19-1.37.25-2.08s.09-1.45.09-2.2a4.61,4.61,0,0,0,0-.53,1.07,1.07,0,0,0-.13-.48.85.85,0,0,0-.34-.34,1.39,1.39,0,0,0-.64-.13h-.13v-.32l.57,0a4.78,4.78,0,0,0,.53-.06c.17,0,.35-.06.54-.1l.64-.18c0,.21-.08.43-.13.66s-.07.45-.09.64a6.92,6.92,0,0,1,1.42-1,2.87,2.87,0,0,1,1.32-.33A1.86,1.86,0,0,1,116,22a1.34,1.34,0,0,1,.52.26,1.71,1.71,0,0,1,.41.57,2.33,2.33,0,0,1,.17,1q0,.39,0,.81c0,.28,0,.56-.07.84s0,.54-.07.79,0,.49,0,.7a1.92,1.92,0,0,0,0,.45.58.58,0,0,0,.15.28.49.49,0,0,0,.26.13,2.25,2.25,0,0,0,.4,0h.37Z"/><path d="M121.11,22c0,.37-.1.74-.14,1.12s-.08.75-.11,1.13,0,.75-.07,1.12,0,.72,0,1.06a7.56,7.56,0,0,0,0,.76,1.11,1.11,0,0,0,.12.44.41.41,0,0,0,.26.21,1.63,1.63,0,0,0,.49.05H122v.33h-.11c-.44,0-.83,0-1.18,0a5.84,5.84,0,0,0-1,.18c.11-.75.2-1.5.26-2.24S120,24.7,120,24a3.3,3.3,0,0,0,0-.58.88.88,0,0,0-.15-.41.68.68,0,0,0-.34-.25,1.59,1.59,0,0,0-.59-.09h-.14v-.32a9.38,9.38,0,0,0,1.27-.13C120.4,22.14,120.76,22.06,121.11,22Zm-.54-1.64a.67.67,0,0,1-.48-.17.71.71,0,0,1-.19-.55.79.79,0,0,1,0-.3.89.89,0,0,1,.14-.25.72.72,0,0,1,.22-.17.73.73,0,0,1,.3-.06.62.62,0,0,1,.46.19.7.7,0,0,1,.19.54.92.92,0,0,1,0,.29.86.86,0,0,1-.14.25.52.52,0,0,1-.22.17A.65.65,0,0,1,120.57,20.33Z"/><path d="M126.28,23.82a1.57,1.57,0,0,1,0-.23,1.7,1.7,0,0,0,0-.22,1,1,0,0,0-.23-.72.89.89,0,0,0-.72-.28,1.54,1.54,0,0,0-.5.08,1,1,0,0,0-.37.22.75.75,0,0,0-.24.32.82.82,0,0,0-.09.38.85.85,0,0,0,.15.51,1.34,1.34,0,0,0,.36.35,3.3,3.3,0,0,0,.49.28l.54.26.52.3a2.15,2.15,0,0,1,.48.36,1.68,1.68,0,0,1,.36.48,1.39,1.39,0,0,1,.13.63,1.59,1.59,0,0,1-.13.64,1.57,1.57,0,0,1-.42.58,2.11,2.11,0,0,1-.76.41,3.36,3.36,0,0,1-1.12.16,3.2,3.2,0,0,1-.72-.07,2.12,2.12,0,0,1-.57-.2,1.08,1.08,0,0,1-.37-.33.8.8,0,0,1-.13-.43.79.79,0,0,1,.25-.6,1,1,0,0,1,.63-.23v.13a1.42,1.42,0,0,0,.35,1,1.27,1.27,0,0,0,.94.36,1.23,1.23,0,0,0,.42-.07.91.91,0,0,0,.37-.21,1.06,1.06,0,0,0,.27-.35,1.21,1.21,0,0,0,.1-.52.91.91,0,0,0-.15-.52,1.45,1.45,0,0,0-.39-.39,2.72,2.72,0,0,0-.5-.29l-.51-.25-.24-.12L124,25a1.9,1.9,0,0,1-.37-.31,1.09,1.09,0,0,1-.23-.39,1.45,1.45,0,0,1-.09-.54,1.73,1.73,0,0,1,.11-.63,1.44,1.44,0,0,1,.29-.46,1.57,1.57,0,0,1,.41-.32,1.87,1.87,0,0,1,.49-.2,3,3,0,0,1,.5-.11l.46,0a3.18,3.18,0,0,1,.62.06,1.94,1.94,0,0,1,.53.18,1.12,1.12,0,0,1,.38.33.81.81,0,0,1,.14.49.72.72,0,0,1-.06.29.61.61,0,0,1-.19.26.83.83,0,0,1-.31.17A1.16,1.16,0,0,1,126.28,23.82Z"/><path d="M132.92,24.54c-.49,0-1,0-1.5-.05l-1.57-.13a4.4,4.4,0,0,0,0,.62,3.61,3.61,0,0,0,.19,1.25,2.14,2.14,0,0,0,.5.79,1.62,1.62,0,0,0,.7.39,2.82,2.82,0,0,0,.83.11,4.12,4.12,0,0,0,.51,0,3.07,3.07,0,0,0,.5-.13,3.45,3.45,0,0,0,.51-.21c.17-.09.35-.21.55-.34l.18.27a6.5,6.5,0,0,1-1.38.92,3.29,3.29,0,0,1-1.46.33,2.7,2.7,0,0,1-1.12-.23,2.5,2.5,0,0,1-.83-.63,2.66,2.66,0,0,1-.53-.91,3,3,0,0,1-.19-1.08,3.74,3.74,0,0,1,.26-1.39,3.68,3.68,0,0,1,.68-1.11,3.34,3.34,0,0,1,1-.74,2.69,2.69,0,0,1,1.19-.27,2.34,2.34,0,0,1,1.05.21,1.82,1.82,0,0,1,.67.55,2,2,0,0,1,.36.73,3,3,0,0,1,.11.77v.14s0,.09,0,.13C133.68,24.53,133.29,24.54,132.92,24.54Zm-1.25-2.17a1.62,1.62,0,0,0-.64.13,1.92,1.92,0,0,0-.5.36,2.16,2.16,0,0,0-.36.53,3.1,3.1,0,0,0-.24.64l.82,0h1.75l.59,0V24a2,2,0,0,0-.11-.67,1.37,1.37,0,0,0-.29-.5,1.21,1.21,0,0,0-.45-.31A1.52,1.52,0,0,0,131.67,22.37Zm-.29-2.26,1.74-2.63a2.79,2.79,0,0,0,.42.35q.22.15.45.27l-2.28,2.23Z"/><path class="cls-1" d="M10.25,15.81h5.31A1.48,1.48,0,0,1,17,17.3V28.22a0,0,0,0,1,0,0H8.77a0,0,0,0,1,0,0V17.3A1.48,1.48,0,0,1,10.25,15.81Z"/><path class="cls-2" d="M.5,28.22V12.85a2.47,2.47,0,0,1,.65-1.64l8.16-9.1a4.82,4.82,0,0,1,7.2,0l8.15,9.1a2.47,2.47,0,0,1,.65,1.64V28.22"/><path d="M36.21,15.47a2.45,2.45,0,0,0,.78-.12,1.79,1.79,0,0,0,.64-.38,1.59,1.59,0,0,0,.42-.59,1.83,1.83,0,0,0,.16-.79,1.62,1.62,0,0,0-.2-.78,3,3,0,0,0-.5-.64,5.81,5.81,0,0,0-.65-.56l-.67-.52-.68-.52a8,8,0,0,1-.69-.62,4,4,0,0,1-.54-.75,2,2,0,0,1-.22-.91,3.15,3.15,0,0,1,0-.52,2.52,2.52,0,0,1,.17-.53,2,2,0,0,1,.81-.91,2.62,2.62,0,0,1,.7-.28,3.76,3.76,0,0,1,.94-.1,6.91,6.91,0,0,1,1.3.11,9.58,9.58,0,0,1,1.09.24L39,8.39h-.4V8.2a4.13,4.13,0,0,0,0-.57,1.38,1.38,0,0,0-.25-.57,1.32,1.32,0,0,0-.54-.43,2.16,2.16,0,0,0-1-.18,2,2,0,0,0-.66.11,1.44,1.44,0,0,0-.5.28,1.12,1.12,0,0,0-.32.45,1.38,1.38,0,0,0-.12.59,1.7,1.7,0,0,0,.17.76,2.52,2.52,0,0,0,.44.59,5.68,5.68,0,0,0,.59.49l.63.44.88.67a4.91,4.91,0,0,1,.74.69,3.27,3.27,0,0,1,.51.78,2.12,2.12,0,0,1,.19.91,2.4,2.4,0,0,1-.26,1.09,2.87,2.87,0,0,1-.71.88,3.22,3.22,0,0,1-1,.59,3.15,3.15,0,0,1-1.17.22,7.93,7.93,0,0,1-1.4-.12,10.39,10.39,0,0,1-1.15-.27l.16-2.2h.43v.24a3.46,3.46,0,0,0,.07.62,1.53,1.53,0,0,0,.28.59,1.62,1.62,0,0,0,.61.45A2.49,2.49,0,0,0,36.21,15.47Z"/><path d="M42.93,9.57c0,.36-.1.73-.14,1.11s-.08.76-.11,1.14,0,.74-.07,1.11,0,.73,0,1.07,0,.57,0,.76a1.11,1.11,0,0,0,.12.44.44.44,0,0,0,.27.21,1.9,1.9,0,0,0,.48.05h.31v.33h-.11c-.44,0-.83,0-1.18,0a8.87,8.87,0,0,0-1,.18c.12-.74.2-1.49.26-2.23s.09-1.48.09-2.2a4.48,4.48,0,0,0,0-.57,1,1,0,0,0-.16-.42.74.74,0,0,0-.34-.25,1.86,1.86,0,0,0-.59-.08h-.14V9.93a8.06,8.06,0,0,0,1.27-.12C42.22,9.74,42.59,9.66,42.93,9.57Zm-.54-1.64a.64.64,0,0,1-.67-.72.94.94,0,0,1,.05-.3.68.68,0,0,1,.14-.25.68.68,0,0,1,.52-.23.65.65,0,0,1,.46.18.73.73,0,0,1,.2.54.94.94,0,0,1-.05.3,1,1,0,0,1-.14.25.68.68,0,0,1-.21.17A.73.73,0,0,1,42.39,7.93Z"/><path d="M55.38,15.79l-.67,0-.6,0c-.19,0-.37,0-.55.06A3.45,3.45,0,0,0,53,16c0-.26.09-.57.13-.9s.09-.68.13-1,.07-.69.09-1,0-.62,0-.87a4.17,4.17,0,0,0,0-.71,2.25,2.25,0,0,0-.17-.62,1.09,1.09,0,0,0-.35-.44.92.92,0,0,0-.57-.17,1.31,1.31,0,0,0-.47.09,2.64,2.64,0,0,0-.44.23,2.94,2.94,0,0,0-.41.31l-.36.32v.21q0,.38,0,.81c0,.28,0,.56-.07.83s0,.54-.07.8,0,.49,0,.7a1.78,1.78,0,0,0,0,.44.5.5,0,0,0,.14.27.47.47,0,0,0,.26.14,1.51,1.51,0,0,0,.39,0h.38v.33l-.67,0-.6,0c-.19,0-.37,0-.55.06a3.45,3.45,0,0,0-.54.11c0-.26.09-.57.13-.9s.09-.68.13-1,.07-.69.1-1,0-.62,0-.87a5.53,5.53,0,0,0,0-.71,2,2,0,0,0-.18-.62,1.09,1.09,0,0,0-.35-.44,1,1,0,0,0-.58-.17,1.37,1.37,0,0,0-.48.1,2.94,2.94,0,0,0-.46.25l-.42.32-.37.33c0,.22,0,.46,0,.7s0,.48,0,.72,0,.48,0,.7,0,.44,0,.63,0,.55,0,.73a1.17,1.17,0,0,0,.11.44.37.37,0,0,0,.25.21,1.45,1.45,0,0,0,.47.06h.36v.33H47.7c-.44,0-.83,0-1.19,0a8.35,8.35,0,0,0-1,.18c.11-.67.19-1.37.25-2.08s.09-1.45.09-2.2c0-.18,0-.36,0-.54a1.23,1.23,0,0,0-.14-.47.9.9,0,0,0-.34-.33,1.25,1.25,0,0,0-.64-.13h-.12V9.93a4.91,4.91,0,0,0,.57,0l.52-.05c.17,0,.36-.06.55-.11s.4-.1.64-.17c0,.2-.08.43-.13.66s-.08.45-.1.64q.36-.33.66-.57a4.88,4.88,0,0,1,.61-.4,2.75,2.75,0,0,1,.59-.25,2.18,2.18,0,0,1,.63-.08,1.41,1.41,0,0,1,.4,0,1.38,1.38,0,0,1,.42.17,1.54,1.54,0,0,1,.36.36,1.62,1.62,0,0,1,.24.61c.22-.2.43-.37.63-.53a4.59,4.59,0,0,1,.57-.37,2.6,2.6,0,0,1,.56-.22,2.43,2.43,0,0,1,.61-.07,2,2,0,0,1,.47.06,1.15,1.15,0,0,1,.48.27,1.46,1.46,0,0,1,.38.57,2.54,2.54,0,0,1,.15,1q0,.38,0,.81c0,.28,0,.56-.07.83s0,.54-.07.8,0,.49,0,.7a1.83,1.83,0,0,0,0,.44.51.51,0,0,0,.15.27.47.47,0,0,0,.26.14,1.51,1.51,0,0,0,.39,0h.38Z"/><path d="M56.82,19.56c0-.09,0-.21,0-.34s0-.29.06-.47,0-.38.07-.61,0-.5.07-.79.07-.89.09-1.38.06-1,.08-1.51,0-1,0-1.49,0-1,0-1.37a1.57,1.57,0,0,0-.27-1,1.09,1.09,0,0,0-.87-.31H56V9.93a5.9,5.9,0,0,0,.74,0c.24,0,.46-.06.66-.09L58,9.68l.37-.11-.12.63c0,.22-.08.45-.11.68a7.17,7.17,0,0,1,1.45-1,2.62,2.62,0,0,1,1.15-.31,1.93,1.93,0,0,1,1.58.66,3,3,0,0,1,.54,1.92,3.77,3.77,0,0,1-.3,1.51,3.43,3.43,0,0,1-.82,1.19,3.75,3.75,0,0,1-1.25.79,4.36,4.36,0,0,1-1.59.28h-.53l-.31,0c0,.56,0,1.07,0,1.53,0,.31,0,.57,0,.77a1.46,1.46,0,0,0,.12.5.56.56,0,0,0,.3.27A1.6,1.6,0,0,0,59,19h.21v.33h-.62a5.44,5.44,0,0,0-.57,0l-.56.06Zm1.24-4.28a3.9,3.9,0,0,0,.56.16,3.14,3.14,0,0,0,.68.07,2.24,2.24,0,0,0,1-.23,2.2,2.2,0,0,0,.78-.64,2.94,2.94,0,0,0,.51-1,4.39,4.39,0,0,0,.17-1.25,2.78,2.78,0,0,0-.14-1,2,2,0,0,0-.36-.67,1.27,1.27,0,0,0-.51-.38,1.48,1.48,0,0,0-.58-.13,1.71,1.71,0,0,0-.54.1,5.22,5.22,0,0,0-.54.24,3.28,3.28,0,0,0-.47.33,4.8,4.8,0,0,0-.39.32Z"/><path d="M65.69,14.2a5.48,5.48,0,0,0,0,.64.89.89,0,0,0,.13.39.49.49,0,0,0,.28.18,2,2,0,0,0,.47.05h.3v.33l-.63,0-.56,0-.57.06-.6.12c.06-.57.11-1.16.16-1.76s.09-1.2.13-1.79.08-1.16.11-1.71S65,9.68,65,9.2s0-.89,0-1.27,0-.68,0-.91a4,4,0,0,0,0-.66A1,1,0,0,0,64.89,6a.58.58,0,0,0-.31-.19,1.82,1.82,0,0,0-.51,0h-.26V5.38l.63,0L65,5.26l.56-.11.6-.14c-.05.59-.1,1.19-.15,1.82s-.09,1.24-.12,1.85-.07,1.2-.1,1.77,0,1.1-.07,1.58,0,.91,0,1.29S65.69,14,65.69,14.2Z"/><path d="M72.05,12.14q-.73,0-1.5-.06c-.5,0-1-.08-1.57-.13a4.64,4.64,0,0,0,0,.63,3.69,3.69,0,0,0,.19,1.25,2,2,0,0,0,.5.78,1.64,1.64,0,0,0,.7.4,3.2,3.2,0,0,0,.83.11,2.78,2.78,0,0,0,.51,0,2.27,2.27,0,0,0,.5-.12,3.14,3.14,0,0,0,.51-.22,5.7,5.7,0,0,0,.55-.33l.18.27A6.5,6.5,0,0,1,72,15.6a3.42,3.42,0,0,1-1.46.32,2.55,2.55,0,0,1-1.12-.23,2.35,2.35,0,0,1-.83-.62,2.66,2.66,0,0,1-.53-.91,3.27,3.27,0,0,1-.19-1.08,3.74,3.74,0,0,1,.94-2.5,3.18,3.18,0,0,1,1-.74A2.73,2.73,0,0,1,71,9.57a2.34,2.34,0,0,1,1,.21,1.9,1.9,0,0,1,.67.54,2.08,2.08,0,0,1,.36.73,3.12,3.12,0,0,1,.11.78V12s0,.08,0,.13C72.81,12.13,72.43,12.14,72.05,12.14ZM70.8,10a1.47,1.47,0,0,0-.64.13,1.77,1.77,0,0,0-.5.36,2.28,2.28,0,0,0-.37.53,4,4,0,0,0-.23.64l.82,0h1.75l.59,0v-.07a2,2,0,0,0-.11-.68,1.33,1.33,0,0,0-.29-.49,1.1,1.1,0,0,0-.45-.31A1.52,1.52,0,0,0,70.8,10Z"/></g></g></svg>