<svg xmlns="http://www.w3.org/2000/svg" width="170.019" height="40.436" viewBox="0 0 170.019 40.436">
  <g id="Logo" transform="translate(-26 -200)">
    <g id="Groupe_21" data-name="Groupe 21" transform="translate(67.742 222.669)">
      <path id="Tracé_5" data-name="Tracé 5" d="M48.059,209.451a6.075,6.075,0,0,0-2.047.348,5.107,5.107,0,0,0-1.736,1.028,5.005,5.005,0,0,0-1.2,1.669,5.431,5.431,0,0,0-.45,2.279,6.027,6.027,0,0,0,.238,1.753,5.5,5.5,0,0,0,.644,1.425,5.124,5.124,0,0,0,.958,1.1,5.793,5.793,0,0,0,1.173.778,5.909,5.909,0,0,0,2.607.618q.409,0,.749-.026a5.61,5.61,0,0,0,.685-.09,6.226,6.226,0,0,0,.717-.171c.25-.067.531-.154.842-.255l.163.488a6.338,6.338,0,0,1-.967.36c-.343.093-.679.171-1.016.229s-.656.1-.964.128-.584.035-.822.035a7.715,7.715,0,0,1-1.777-.2,7.1,7.1,0,0,1-1.582-.563,6.261,6.261,0,0,1-1.333-.894,5.762,5.762,0,0,1-1.025-1.184,5.583,5.583,0,0,1-.883-3.069,6.66,6.66,0,0,1,.229-1.774,6.122,6.122,0,0,1,.659-1.547,5.9,5.9,0,0,1,1.045-1.283,6.183,6.183,0,0,1,1.388-.975,7.137,7.137,0,0,1,1.675-.613,8.344,8.344,0,0,1,1.919-.212,14.737,14.737,0,0,1,2.235.151q.954.148,1.684.334l-.247,2.842H51.1v-.136a4.007,4.007,0,0,0-.1-.891,1.972,1.972,0,0,0-.43-.827,2.324,2.324,0,0,0-.923-.613A4.361,4.361,0,0,0,48.059,209.451Z" transform="translate(-41.034 -207.768)" fill="#1a1a1a"/>
      <path id="Tracé_6" data-name="Tracé 6" d="M45.162,214.664a4.448,4.448,0,0,1,.29-1.582,4.255,4.255,0,0,1,.833-1.379,4.137,4.137,0,0,1,1.33-.973,4.074,4.074,0,0,1,1.78-.372,4.4,4.4,0,0,1,1.608.264,2.879,2.879,0,0,1,1.08.72,2.762,2.762,0,0,1,.61,1.06,4.209,4.209,0,0,1,.192,1.283,4.692,4.692,0,0,1-.322,1.736,4.431,4.431,0,0,1-.894,1.423,4.251,4.251,0,0,1-1.338.964,3.927,3.927,0,0,1-1.649.351,4.215,4.215,0,0,1-1.7-.3,2.748,2.748,0,0,1-1.652-1.89A5.137,5.137,0,0,1,45.162,214.664Zm3.852-3.82a2.179,2.179,0,0,0-1.109.282,2.525,2.525,0,0,0-.81.749,3.526,3.526,0,0,0-.5,1.077,4.705,4.705,0,0,0-.168,1.266,5.073,5.073,0,0,0,.151,1.234,3.588,3.588,0,0,0,.47,1.1,2.533,2.533,0,0,0,.816.793,2.234,2.234,0,0,0,1.182.3,2.455,2.455,0,0,0,1.086-.229,2.249,2.249,0,0,0,.8-.656,2.993,2.993,0,0,0,.505-1.039,5.011,5.011,0,0,0,.174-1.37,4.907,4.907,0,0,0-.154-1.179,3.972,3.972,0,0,0-.47-1.135,2.722,2.722,0,0,0-.81-.856A2.006,2.006,0,0,0,49.014,210.844Z" transform="translate(-33.178 -204.858)" fill="#1a1a1a"/>
      <path id="Tracé_7" data-name="Tracé 7" d="M61.549,217.988c-.293.012-.569.023-.824.029s-.5.023-.732.041-.459.038-.676.073a4.948,4.948,0,0,0-.659.139c.052-.328.1-.7.163-1.115s.107-.83.154-1.251.081-.839.11-1.24.041-.758.041-1.063a6.082,6.082,0,0,0-.058-.868,2.776,2.776,0,0,0-.212-.761,1.367,1.367,0,0,0-.427-.54,1.137,1.137,0,0,0-.705-.206,1.561,1.561,0,0,0-.569.11,3.222,3.222,0,0,0-.546.279,3.818,3.818,0,0,0-.5.374c-.157.139-.3.27-.441.395v.255c0,.316-.012.647-.038.993s-.055.691-.087,1.028-.058.662-.084.975-.038.6-.038.856a2.169,2.169,0,0,0,.055.543.684.684,0,0,0,.18.334.6.6,0,0,0,.316.171,1.889,1.889,0,0,0,.476.049h.47v.4c-.3.012-.572.023-.827.029s-.5.023-.732.041-.456.038-.674.073a4.852,4.852,0,0,0-.659.139c.049-.328.1-.7.16-1.115s.11-.83.157-1.251.087-.839.116-1.24.044-.758.044-1.063a7.076,7.076,0,0,0-.055-.868,2.588,2.588,0,0,0-.215-.761,1.38,1.38,0,0,0-.433-.54,1.167,1.167,0,0,0-.711-.206,1.57,1.57,0,0,0-.589.119,3.113,3.113,0,0,0-.563.3c-.177.122-.348.255-.514.395s-.316.282-.459.406q-.035.409-.061.853c-.017.3-.032.6-.046.891s-.026.581-.032.859-.015.534-.015.772c0,.369.009.668.026.894a1.372,1.372,0,0,0,.128.534.51.51,0,0,0,.311.264,1.886,1.886,0,0,0,.575.07h.441v.4h-.163c-.531,0-1.019.02-1.457.061a7.456,7.456,0,0,0-1.272.221q.2-1.245.3-2.563c.075-.877.11-1.777.11-2.7,0-.224-.009-.441-.029-.656a1.493,1.493,0,0,0-.165-.575,1.015,1.015,0,0,0-.418-.409,1.608,1.608,0,0,0-.781-.16h-.154v-.4c.255-.012.491-.023.7-.041s.424-.035.639-.067.433-.073.668-.125.494-.128.79-.221c-.052.256-.1.528-.157.816s-.1.546-.125.784c.29-.267.56-.5.813-.7a5.693,5.693,0,0,1,.74-.5,3.291,3.291,0,0,1,.726-.3,2.809,2.809,0,0,1,.775-.1,2.2,2.2,0,0,1,.494.061,1.7,1.7,0,0,1,.511.215,1.677,1.677,0,0,1,.441.441,2.212,2.212,0,0,1,.3.746c.27-.244.525-.456.763-.642a5.387,5.387,0,0,1,.7-.462,3.358,3.358,0,0,1,.694-.27,3.078,3.078,0,0,1,.749-.09,2.3,2.3,0,0,1,.578.084,1.361,1.361,0,0,1,.586.325,1.939,1.939,0,0,1,.459.694,3.087,3.087,0,0,1,.189,1.179c0,.316-.015.647-.041.993s-.052.691-.084,1.028-.058.662-.084.975-.038.6-.038.856a2.169,2.169,0,0,0,.055.543.681.681,0,0,0,.177.334.612.612,0,0,0,.319.171,1.889,1.889,0,0,0,.476.049h.467Z" transform="translate(-27.273 -204.858)" fill="#1a1a1a"/>
      <path id="Tracé_8" data-name="Tracé 8" d="M66.422,217.988c-.293.012-.569.023-.824.029s-.5.023-.732.041-.456.038-.676.073a4.947,4.947,0,0,0-.659.139c.052-.328.1-.7.163-1.115s.107-.83.154-1.251.081-.839.11-1.24S64,213.907,64,213.6a6.081,6.081,0,0,0-.058-.868,2.777,2.777,0,0,0-.212-.761,1.367,1.367,0,0,0-.427-.54,1.138,1.138,0,0,0-.705-.206,1.561,1.561,0,0,0-.569.11,3.221,3.221,0,0,0-.546.279,3.817,3.817,0,0,0-.5.374c-.157.139-.3.27-.441.395v.255c0,.316-.012.647-.038.993s-.055.691-.084,1.028-.061.662-.087.975-.038.6-.038.856a2.169,2.169,0,0,0,.055.543.684.684,0,0,0,.18.334.6.6,0,0,0,.316.171,1.9,1.9,0,0,0,.479.049h.467v.4c-.3.012-.572.023-.827.029s-.5.023-.729.041-.459.038-.676.073a4.852,4.852,0,0,0-.659.139c.049-.328.1-.7.16-1.115s.11-.83.157-1.251.087-.839.116-1.24.044-.758.044-1.063a7.071,7.071,0,0,0-.055-.868,2.587,2.587,0,0,0-.215-.761,1.38,1.38,0,0,0-.433-.54,1.167,1.167,0,0,0-.711-.206,1.57,1.57,0,0,0-.589.119,3.113,3.113,0,0,0-.563.3c-.177.122-.348.255-.514.395s-.316.282-.459.406q-.035.409-.061.853c-.015.3-.032.6-.046.891s-.026.581-.032.859-.015.534-.015.772c0,.369.009.668.026.894a1.373,1.373,0,0,0,.128.534.51.51,0,0,0,.311.264,1.886,1.886,0,0,0,.575.07h.441v.4H57c-.531,0-1.019.02-1.457.061a7.456,7.456,0,0,0-1.272.221q.2-1.245.3-2.563c.075-.877.11-1.777.11-2.7,0-.224-.009-.441-.029-.656a1.493,1.493,0,0,0-.165-.575,1.015,1.015,0,0,0-.418-.409,1.607,1.607,0,0,0-.781-.16h-.154v-.4c.255-.012.491-.023.7-.041s.424-.035.639-.067.435-.073.668-.125.494-.128.79-.221c-.052.256-.1.528-.157.816s-.1.546-.125.784c.29-.267.56-.5.813-.7a5.693,5.693,0,0,1,.74-.5,3.312,3.312,0,0,1,.729-.3,2.788,2.788,0,0,1,.772-.1,2.18,2.18,0,0,1,.494.061,1.7,1.7,0,0,1,.511.215,1.677,1.677,0,0,1,.441.441,2.212,2.212,0,0,1,.3.746c.27-.244.525-.456.763-.642a5.386,5.386,0,0,1,.7-.462,3.358,3.358,0,0,1,.694-.27,3.078,3.078,0,0,1,.749-.09,2.3,2.3,0,0,1,.578.084,1.345,1.345,0,0,1,.586.325,1.9,1.9,0,0,1,.459.694,3.087,3.087,0,0,1,.189,1.179c0,.316-.015.647-.038.993s-.055.691-.087,1.028-.058.662-.084.975-.038.6-.038.856a2.169,2.169,0,0,0,.055.543.682.682,0,0,0,.177.334.612.612,0,0,0,.319.171,1.889,1.889,0,0,0,.476.049h.467Z" transform="translate(-17.999 -204.858)" fill="#1a1a1a"/>
      <path id="Tracé_9" data-name="Tracé 9" d="M63.234,213.515q-.91,0-1.835-.067c-.618-.046-1.263-.1-1.931-.163a5.931,5.931,0,0,0-.052.766,4.482,4.482,0,0,0,.238,1.539,2.529,2.529,0,0,0,.607.958,2.076,2.076,0,0,0,.865.488,3.738,3.738,0,0,0,1.01.136,4.068,4.068,0,0,0,.636-.046,3.628,3.628,0,0,0,.607-.148,4.256,4.256,0,0,0,.627-.27,5.8,5.8,0,0,0,.674-.412l.224.334a8.106,8.106,0,0,1-1.69,1.126,4.1,4.1,0,0,1-1.791.4,3.227,3.227,0,0,1-1.373-.284,3.081,3.081,0,0,1-1.028-.764,3.422,3.422,0,0,1-.647-1.118,3.913,3.913,0,0,1-.226-1.33,4.609,4.609,0,0,1,.311-1.7A4.424,4.424,0,0,1,59.3,211.6a3.965,3.965,0,0,1,1.231-.909,3.332,3.332,0,0,1,1.463-.334,2.927,2.927,0,0,1,1.289.258,2.4,2.4,0,0,1,.824.671,2.577,2.577,0,0,1,.441.894,3.712,3.712,0,0,1,.131.949v.171a1.089,1.089,0,0,1-.015.163C64.172,213.5,63.7,213.515,63.234,213.515ZM61.7,210.853a1.819,1.819,0,0,0-.778.163,2.116,2.116,0,0,0-.613.438,2.672,2.672,0,0,0-.45.65,4.359,4.359,0,0,0-.293.781c.4.012.74.02,1.016.026s.508.009.7.009h.842c.2,0,.4,0,.6-.009s.441-.014.714-.026V212.8a2.508,2.508,0,0,0-.128-.824,1.8,1.8,0,0,0-.357-.61,1.515,1.515,0,0,0-.555-.38A1.862,1.862,0,0,0,61.7,210.853Z" transform="translate(-8.465 -204.858)" fill="#1a1a1a"/>
      <path id="Tracé_10" data-name="Tracé 10" d="M62.532,215.031a6.593,6.593,0,0,1,.459-2.476,5.749,5.749,0,0,1,1.292-1.962,5.948,5.948,0,0,1,2-1.295,6.919,6.919,0,0,1,2.587-.467,5.272,5.272,0,0,1,1.605.235,5.123,5.123,0,0,1,1.341.647,5.235,5.235,0,0,1,1.068.973,5.969,5.969,0,0,1,.787,1.211,6.2,6.2,0,0,1,.479,1.373,6.629,6.629,0,0,1,.163,1.446,7.136,7.136,0,0,1-.459,2.6,6.317,6.317,0,0,1-1.248,2.029,5.563,5.563,0,0,1-1.835,1.327,5.259,5.259,0,0,1-2.218.473,6.7,6.7,0,0,1-1.846-.241,5.738,5.738,0,0,1-1.507-.673,5.247,5.247,0,0,1-1.173-1.01,5.909,5.909,0,0,1-.833-1.263,6.482,6.482,0,0,1-.5-1.425A6.872,6.872,0,0,1,62.532,215.031Zm1.565-.18a7.51,7.51,0,0,0,.3,2.128,5.87,5.87,0,0,0,.877,1.806,4.38,4.38,0,0,0,1.408,1.257,3.729,3.729,0,0,0,1.9.473,3.809,3.809,0,0,0,1.8-.406,3.711,3.711,0,0,0,1.3-1.121,5.012,5.012,0,0,0,.781-1.655,7.535,7.535,0,0,0,.264-2.038A8.216,8.216,0,0,0,72.411,213a6.137,6.137,0,0,0-.871-1.858A4.257,4.257,0,0,0,70.2,209.9a3.345,3.345,0,0,0-1.7-.45,4.973,4.973,0,0,0-1,.107,3.851,3.851,0,0,0-1,.357,4.107,4.107,0,0,0-.926.659,3.86,3.86,0,0,0-.766,1.007,5.626,5.626,0,0,0-.52,1.408A8.1,8.1,0,0,0,64.1,214.851Z" transform="translate(-0.122 -207.768)" fill="#1a1a1a"/>
      <path id="Tracé_11" data-name="Tracé 11" d="M69.879,210.359c-.023.107-.046.232-.073.372s-.052.282-.078.43-.049.29-.073.438-.041.276-.058.395a7.6,7.6,0,0,1,.859-.764,7.36,7.36,0,0,1,.772-.505,3.221,3.221,0,0,1,.644-.279,1.682,1.682,0,0,1,.479-.087,1,1,0,0,1,.389.067.589.589,0,0,1,.244.163.528.528,0,0,1,.131.218.773.773,0,0,1,.035.221.99.99,0,0,1-.131.479,2.206,2.206,0,0,1-.3.412,1.258,1.258,0,0,0-.47-.351,1.494,1.494,0,0,0-.546-.1,1.947,1.947,0,0,0-.505.073,2.8,2.8,0,0,0-.514.2,3.519,3.519,0,0,0-.505.3,3.154,3.154,0,0,0-.464.386q-.052.858-.116,1.672c-.041.543-.064,1.109-.064,1.7q0,.579.035.932a1.39,1.39,0,0,0,.145.543.54.54,0,0,0,.328.255,2.125,2.125,0,0,0,.589.064h.386v.4h-.165c-.531,0-1.013.02-1.431.061a7.565,7.565,0,0,0-1.245.221q.2-1.367.325-2.74t.119-2.694a4.57,4.57,0,0,0-.046-.708,1.191,1.191,0,0,0-.192-.508.848.848,0,0,0-.418-.3,2.018,2.018,0,0,0-.714-.1h-.186v-.4c.273-.023.514-.041.723-.058s.418-.035.624-.055.427-.067.656-.116S69.571,210.458,69.879,210.359Z" transform="translate(8.506 -204.858)" fill="#1a1a1a"/>
      <path id="Tracé_12" data-name="Tracé 12" d="M73.458,210.359a3.516,3.516,0,0,1,1.454.27,2.218,2.218,0,0,1,.946.769,4.36,4.36,0,0,1,1.007-.763,1.794,1.794,0,0,1,.746-.206.649.649,0,0,1,.52.183.583.583,0,0,1,.16.395,1.036,1.036,0,0,1-.067.357,1.013,1.013,0,0,1-.224.34,3.257,3.257,0,0,0-.4-.218,1.417,1.417,0,0,0-.528-.078,1.337,1.337,0,0,0-.517.11,3.907,3.907,0,0,0-.528.264,3.331,3.331,0,0,1,.087.4,2.5,2.5,0,0,1,.041.409,2.8,2.8,0,0,1-.247,1.158,3.052,3.052,0,0,1-.674.964,3.22,3.22,0,0,1-1,.653,3.041,3.041,0,0,1-1.228.244c-.107,0-.212,0-.308-.006a1.968,1.968,0,0,1-.27-.02,4.191,4.191,0,0,0-.29.348,2.087,2.087,0,0,0-.2.316.642.642,0,0,0-.093.287.3.3,0,0,0,.084.224.614.614,0,0,0,.261.165,2.84,2.84,0,0,0,.482.131c.2.041.441.081.726.128.5.084.943.171,1.33.255a3.943,3.943,0,0,1,.99.337,1.483,1.483,0,0,1,.613.546,1.607,1.607,0,0,1,.212.868,2.16,2.16,0,0,1-.18.848,3.356,3.356,0,0,1-.494.8,4.41,4.41,0,0,1-.752.711,5.265,5.265,0,0,1-.943.563,5.518,5.518,0,0,1-1.08.374,5.052,5.052,0,0,1-1.158.136,4.628,4.628,0,0,1-1.292-.154,2.354,2.354,0,0,1-.824-.409,1.482,1.482,0,0,1-.438-.592,1.881,1.881,0,0,1-.128-.691,2.453,2.453,0,0,1,.058-.505,1.736,1.736,0,0,1,.247-.56,2.93,2.93,0,0,1,.537-.607,4.95,4.95,0,0,1,.926-.624l.212.331a1.576,1.576,0,0,0-.575.644,2.084,2.084,0,0,0-.189.9,1.353,1.353,0,0,0,.186.729,1.575,1.575,0,0,0,.494.485,2.149,2.149,0,0,0,.7.273,3.8,3.8,0,0,0,.816.087,3.345,3.345,0,0,0,.955-.148,3.257,3.257,0,0,0,.9-.43,2.43,2.43,0,0,0,.671-.7,1.713,1.713,0,0,0,.261-.926,1.292,1.292,0,0,0-.084-.491.764.764,0,0,0-.267-.343,1.717,1.717,0,0,0-.491-.241,5.707,5.707,0,0,0-.743-.189l-2.038-.389a1.826,1.826,0,0,1-.732-.293.7.7,0,0,1-.29-.61,1.023,1.023,0,0,1,.107-.415,3.475,3.475,0,0,1,.264-.465,5.543,5.543,0,0,1,.34-.45c.122-.145.235-.276.337-.395a2.342,2.342,0,0,1-.65-.253,2.031,2.031,0,0,1-.552-.444,2.113,2.113,0,0,1-.377-.639,2.285,2.285,0,0,1-.142-.842,2.809,2.809,0,0,1,.261-1.222,2.714,2.714,0,0,1,.708-.914,3.269,3.269,0,0,1,1.054-.572A4.055,4.055,0,0,1,73.458,210.359Zm-.36.494a1.5,1.5,0,0,0-.723.174,1.649,1.649,0,0,0-.531.47,2.177,2.177,0,0,0-.322.665,2.794,2.794,0,0,0-.11.784,3.252,3.252,0,0,0,.1.781,2.193,2.193,0,0,0,.308.691,1.613,1.613,0,0,0,.525.494,1.679,1.679,0,0,0,2.012-.366,2.342,2.342,0,0,0,.441-1.5,3.141,3.141,0,0,0-.1-.746,2.418,2.418,0,0,0-.308-.708,1.8,1.8,0,0,0-.525-.531A1.4,1.4,0,0,0,73.1,210.853Z" transform="translate(12.682 -204.858)" fill="#1a1a1a"/>
      <path id="Tracé_13" data-name="Tracé 13" d="M72.483,216.662a1.475,1.475,0,0,1,.258-.868,2.344,2.344,0,0,1,.676-.627,3.958,3.958,0,0,1,.92-.435,8.719,8.719,0,0,1,1.022-.273c.34-.067.659-.116.967-.148s.549-.052.743-.064c.026-.255.044-.5.055-.74s.012-.462.012-.671a4.658,4.658,0,0,0-.061-.766,1.737,1.737,0,0,0-.229-.645,1.239,1.239,0,0,0-.473-.45,1.672,1.672,0,0,0-.79-.163,1.51,1.51,0,0,0-.63.128,1.593,1.593,0,0,0-.5.343,1.558,1.558,0,0,0-.322.511,1.612,1.612,0,0,0-.116.624,1.526,1.526,0,0,0,.02.258,1.742,1.742,0,0,0,.064.279.6.6,0,0,1-.258.171,1.023,1.023,0,0,1-.334.058.857.857,0,0,1-.244-.038.561.561,0,0,1-.212-.125.614.614,0,0,1-.148-.221.858.858,0,0,1-.055-.331,1.3,1.3,0,0,1,.331-.868,2.841,2.841,0,0,1,.822-.665,4.456,4.456,0,0,1,1.086-.427,4.58,4.58,0,0,1,1.115-.151,2.428,2.428,0,0,1,1.571.462,1.856,1.856,0,0,1,.563,1.521c0,.3-.015.642-.038,1.01s-.055.726-.09,1.083-.061.7-.09,1.013-.038.586-.038.8a2.077,2.077,0,0,0,.134.833.424.424,0,0,0,.4.3.6.6,0,0,0,.322-.1,1.906,1.906,0,0,0,.308-.232,1.717,1.717,0,0,0,.253-.273c.075-.09.134-.163.18-.215l.314.264a5.562,5.562,0,0,1-.552.676,2.886,2.886,0,0,1-.485.409,1.491,1.491,0,0,1-.441.2,1.754,1.754,0,0,1-.418.052,1.156,1.156,0,0,1-.546-.125,1.04,1.04,0,0,1-.374-.325,1.427,1.427,0,0,1-.232-.47,2.005,2.005,0,0,1-.09-.543,4.055,4.055,0,0,1-.4.543,2.706,2.706,0,0,1-.537.47,2.567,2.567,0,0,1-.7.325,2.946,2.946,0,0,1-.877.125,2.6,2.6,0,0,1-.943-.148,1.5,1.5,0,0,1-.569-.374,1.18,1.18,0,0,1-.279-.491A1.786,1.786,0,0,1,72.483,216.662Zm2.311.877a1.739,1.739,0,0,0,.932-.241,2.122,2.122,0,0,0,.642-.645,3.482,3.482,0,0,0,.418-.914,6.972,6.972,0,0,0,.232-1.057c-.192.017-.409.035-.644.058s-.476.061-.717.107a5.278,5.278,0,0,0-.705.195,2.529,2.529,0,0,0-.61.319,1.577,1.577,0,0,0-.427.473,1.262,1.262,0,0,0-.163.659,1.108,1.108,0,0,0,.1.52.926.926,0,0,0,.27.322.9.9,0,0,0,.337.16A1.406,1.406,0,0,0,74.794,217.538Z" transform="translate(18.815 -204.858)" fill="#1a1a1a"/>
      <path id="Tracé_14" data-name="Tracé 14" d="M84.339,217.988c-.3.012-.578.023-.833.029s-.5.023-.726.041-.456.038-.674.073a4.853,4.853,0,0,0-.659.139c.052-.328.1-.7.16-1.115s.1-.83.151-1.251.087-.839.113-1.24.044-.758.044-1.063-.015-.586-.038-.868a2.271,2.271,0,0,0-.2-.761,1.248,1.248,0,0,0-.479-.54,1.664,1.664,0,0,0-.894-.206,1.941,1.941,0,0,0-.653.116,3.876,3.876,0,0,0-.644.29,4.512,4.512,0,0,0-.584.386,5.879,5.879,0,0,0-.482.4c-.017.273-.038.563-.058.865s-.035.6-.049.9-.026.584-.038.868-.017.537-.017.775c0,.369.009.668.032.894a1.268,1.268,0,0,0,.136.534.513.513,0,0,0,.316.264,1.92,1.92,0,0,0,.578.07h.427v.4c-.613,0-1.147.02-1.6.061a7.5,7.5,0,0,0-1.292.221c.131-.827.232-1.681.3-2.555s.11-1.774.11-2.694c0-.221-.009-.438-.023-.653a1.5,1.5,0,0,0-.163-.581,1.024,1.024,0,0,0-.418-.421,1.668,1.668,0,0,0-.79-.157h-.163v-.4c.255-.012.491-.023.705-.041s.43-.035.644-.067.435-.073.668-.125.5-.128.79-.221c-.049.256-.1.528-.16.816s-.093.546-.122.784a9.111,9.111,0,0,1,1.745-1.2,3.6,3.6,0,0,1,1.626-.4,2.566,2.566,0,0,1,.6.084,1.518,1.518,0,0,1,.633.325,1.936,1.936,0,0,1,.505.694,2.8,2.8,0,0,1,.209,1.179c0,.316-.009.647-.038.993s-.055.691-.087,1.028-.055.662-.084.975-.038.6-.038.856a2.212,2.212,0,0,0,.055.552.687.687,0,0,0,.183.337.592.592,0,0,0,.322.166,2.3,2.3,0,0,0,.488.044h.459Z" transform="translate(24.058 -204.858)" fill="#1a1a1a"/>
      <path id="Tracé_15" data-name="Tracé 15" d="M81.567,212.884c-.067.45-.128.906-.177,1.37s-.1.929-.131,1.391-.067.917-.084,1.37-.023.885-.023,1.3c0,.386.012.7.032.932a1.361,1.361,0,0,0,.145.543.535.535,0,0,0,.328.255,2.024,2.024,0,0,0,.592.067h.38v.4H82.5q-.806,0-1.446.061a7.525,7.525,0,0,0-1.26.221c.136-.917.241-1.835.311-2.746s.107-1.809.107-2.688a4.57,4.57,0,0,0-.046-.708,1.155,1.155,0,0,0-.192-.508.853.853,0,0,0-.415-.3,2.071,2.071,0,0,0-.723-.1h-.18v-.4a10.814,10.814,0,0,0,1.568-.154C80.69,213.1,81.143,213,81.567,212.884Zm-.662-2.006a.821.821,0,0,1-.586-.218.852.852,0,0,1-.238-.668,1.132,1.132,0,0,1,.058-.372.991.991,0,0,1,.174-.3.881.881,0,0,1,.276-.206.825.825,0,0,1,.366-.078.793.793,0,0,1,.563.229.89.89,0,0,1,.238.665,1.065,1.065,0,0,1-.061.36.954.954,0,0,1-.163.3.787.787,0,0,1-.267.212A.831.831,0,0,1,80.9,210.878Z" transform="translate(30.555 -207.383)" fill="#1a1a1a"/>
      <path id="Tracé_16" data-name="Tracé 16" d="M84.483,212.632c.017-.1.032-.194.046-.284a2.285,2.285,0,0,0,.02-.27,1.323,1.323,0,0,0-.282-.885,1.094,1.094,0,0,0-.891-.34,1.754,1.754,0,0,0-.61.1,1.384,1.384,0,0,0-.459.261,1.14,1.14,0,0,0-.293.392,1.152,1.152,0,0,0-.1.47,1.075,1.075,0,0,0,.174.624,1.728,1.728,0,0,0,.447.435,4.254,4.254,0,0,0,.6.34c.221.1.438.209.656.322s.421.235.639.36a3.289,3.289,0,0,1,.6.447,2.11,2.11,0,0,1,.438.586,1.761,1.761,0,0,1,.163.775,2.066,2.066,0,0,1-.16.793,1.951,1.951,0,0,1-.52.705,2.58,2.58,0,0,1-.926.5,4.267,4.267,0,0,1-1.379.194,4.417,4.417,0,0,1-.888-.084,2.526,2.526,0,0,1-.694-.247,1.29,1.29,0,0,1-.45-.4.938.938,0,0,1-.163-.537.922.922,0,0,1,.308-.729,1.222,1.222,0,0,1,.772-.282v.16a1.677,1.677,0,0,0,.433,1.222,1.506,1.506,0,0,0,1.141.447,1.6,1.6,0,0,0,.52-.087,1.321,1.321,0,0,0,.459-.255,1.209,1.209,0,0,0,.328-.438,1.5,1.5,0,0,0,.122-.633,1.087,1.087,0,0,0-.186-.636,1.889,1.889,0,0,0-.473-.476,4.278,4.278,0,0,0-.615-.363c-.221-.1-.427-.206-.621-.3l-.3-.154a6.453,6.453,0,0,1-.6-.34,2,2,0,0,1-.459-.38,1.41,1.41,0,0,1-.287-.482,1.86,1.86,0,0,1-.1-.659,2,2,0,0,1,.131-.769,1.783,1.783,0,0,1,.354-.566,2,2,0,0,1,.508-.4,3.172,3.172,0,0,1,.6-.244,4.283,4.283,0,0,1,.613-.131,5.1,5.1,0,0,1,.563-.038,3.809,3.809,0,0,1,.758.076,2.306,2.306,0,0,1,.662.224,1.328,1.328,0,0,1,.462.4,1,1,0,0,1,.177.6.878.878,0,0,1-.078.363.95.95,0,0,1-.229.311,1.1,1.1,0,0,1-.386.215A1.587,1.587,0,0,1,84.483,212.632Z" transform="translate(33.979 -204.858)" fill="#1a1a1a"/>
      <path id="Tracé_17" data-name="Tracé 17" d="M87.978,217.121q-.906,0-1.835-.067c-.618-.046-1.263-.1-1.931-.163a5.93,5.93,0,0,0-.052.766A4.482,4.482,0,0,0,84.4,219.2a2.465,2.465,0,0,0,.61.958,2.048,2.048,0,0,0,.862.488,3.744,3.744,0,0,0,1.013.136,4,4,0,0,0,.63-.046,3.592,3.592,0,0,0,.61-.148,4.258,4.258,0,0,0,.627-.27,6.072,6.072,0,0,0,.676-.412l.221.334a8.106,8.106,0,0,1-1.69,1.126,4.107,4.107,0,0,1-1.791.4,3.217,3.217,0,0,1-1.373-.285,3.052,3.052,0,0,1-1.028-.764,3.315,3.315,0,0,1-.644-1.118,3.843,3.843,0,0,1-.226-1.33,4.551,4.551,0,0,1,.311-1.7,4.311,4.311,0,0,1,.839-1.364,3.966,3.966,0,0,1,1.231-.909,3.332,3.332,0,0,1,1.463-.334,2.905,2.905,0,0,1,1.286.258,2.413,2.413,0,0,1,.827.671,2.69,2.69,0,0,1,.444.894,3.845,3.845,0,0,1,.131.949v.171a.818.818,0,0,1-.017.163C88.916,217.1,88.44,217.121,87.978,217.121Zm-1.539-2.662a1.829,1.829,0,0,0-.778.163,2.155,2.155,0,0,0-.613.438,2.593,2.593,0,0,0-.45.65,4.148,4.148,0,0,0-.293.781c.4.012.74.02,1.013.026s.511.009.705.009h.842c.2,0,.4,0,.6-.009s.441-.014.714-.026v-.084a2.507,2.507,0,0,0-.128-.824,1.71,1.71,0,0,0-.357-.61,1.515,1.515,0,0,0-.555-.38A1.862,1.862,0,0,0,86.44,214.459Zm-.348-2.772,2.134-3.222a3.557,3.557,0,0,0,.514.424,5.253,5.253,0,0,0,.552.325l-2.8,2.746Z" transform="translate(38.63 -208.464)" fill="#1a1a1a"/>
    </g>
    <g id="Groupe_22" data-name="Groupe 22" transform="translate(27 201)">
      <rect id="Rectangle_30" data-name="Rectangle 30" width="10.146" height="15.219" transform="translate(10.146 19.618)" fill="#1a1a1a"/>
      <path id="Tracé_18" data-name="Tracé 18" d="M27,235.837V216.982a3.02,3.02,0,0,1,.8-2.015L39.155,202.3a4.272,4.272,0,0,1,6.128,0L56.64,214.967a3.02,3.02,0,0,1,.8,2.015v18.855" transform="translate(-27 -201)" fill="none" stroke="#1a1a1a" stroke-miterlimit="10" stroke-width="2"/>
    </g>
    <g id="Groupe_23" data-name="Groupe 23" transform="translate(67.64 202.461)">
      <path id="Tracé_19" data-name="Tracé 19" d="M44.169,213.586a2.882,2.882,0,0,0,.958-.157,2.312,2.312,0,0,0,.778-.456,2.091,2.091,0,0,0,.523-.729,2.354,2.354,0,0,0,.192-.973,1.923,1.923,0,0,0-.241-.949,3.688,3.688,0,0,0-.613-.8,7.706,7.706,0,0,0-.8-.688c-.29-.215-.566-.427-.824-.639-.25-.192-.525-.4-.827-.633a7.189,7.189,0,0,1-.845-.761,4.22,4.22,0,0,1-.665-.92,2.339,2.339,0,0,1-.267-1.112,3.628,3.628,0,0,1,.061-.645,2.585,2.585,0,0,1,.206-.653,2.7,2.7,0,0,1,.392-.607,2.344,2.344,0,0,1,.6-.5,3.224,3.224,0,0,1,.859-.348A4.6,4.6,0,0,1,44.8,201.9a9.572,9.572,0,0,1,1.6.134,11.6,11.6,0,0,1,1.332.3l-.189,2.561h-.485v-.229a3.92,3.92,0,0,0-.067-.705,1.64,1.64,0,0,0-.967-1.225,2.7,2.7,0,0,0-1.176-.215,2.5,2.5,0,0,0-.8.125,1.932,1.932,0,0,0-.618.345,1.6,1.6,0,0,0-.395.552,1.8,1.8,0,0,0-.139.723,2,2,0,0,0,.209.932,2.777,2.777,0,0,0,.534.726,5.317,5.317,0,0,0,.729.6c.264.186.523.366.772.549.374.27.734.543,1.077.813a6.528,6.528,0,0,1,.906.851,3.783,3.783,0,0,1,.624.955,2.649,2.649,0,0,1,.235,1.123,2.861,2.861,0,0,1-.322,1.335,3.6,3.6,0,0,1-.862,1.08,4.172,4.172,0,0,1-1.234.723,4.048,4.048,0,0,1-1.434.264,9.859,9.859,0,0,1-1.713-.145A11.6,11.6,0,0,1,41,213.74l.2-2.7h.525v.3a3.479,3.479,0,0,0,.087.752,1.754,1.754,0,0,0,.343.729,1.916,1.916,0,0,0,.74.549A3.129,3.129,0,0,0,44.169,213.586Z" transform="translate(-40.999 -200.751)" fill="#1a1a1a"/>
      <path id="Tracé_20" data-name="Tracé 20" d="M46.842,205.953c-.07.447-.128.9-.18,1.367s-.1.932-.131,1.391-.064.917-.081,1.373-.026.883-.026,1.3c0,.386.012.7.035.929a1.33,1.33,0,0,0,.145.546.522.522,0,0,0,.325.255,2.147,2.147,0,0,0,.592.064H47.9v.4h-.136c-.534,0-1.016.02-1.446.058a7.887,7.887,0,0,0-1.26.221c.139-.917.241-1.832.314-2.746s.107-1.809.107-2.688a4.6,4.6,0,0,0-.046-.708,1.207,1.207,0,0,0-.192-.508.848.848,0,0,0-.418-.3,2.055,2.055,0,0,0-.723-.1h-.177v-.4a10.39,10.39,0,0,0,1.565-.154Q46.2,206.123,46.842,205.953Zm-.665-2.009a.825.825,0,0,1-.586-.218.849.849,0,0,1-.238-.665,1.214,1.214,0,0,1,.058-.372.957.957,0,0,1,.177-.308.893.893,0,0,1,.276-.206.825.825,0,0,1,.366-.075.779.779,0,0,1,.56.229.872.872,0,0,1,.238.662,1.141,1.141,0,0,1-.058.36.954.954,0,0,1-.168.308.738.738,0,0,1-.261.209A.8.8,0,0,1,46.177,203.944Z" transform="translate(-35.427 -200.365)" fill="#1a1a1a"/>
      <path id="Tracé_21" data-name="Tracé 21" d="M58.9,211.057c-.3.012-.569.02-.824.026s-.5.023-.732.041-.459.041-.676.073a4.93,4.93,0,0,0-.659.139c.049-.328.1-.7.163-1.112s.107-.833.151-1.254.084-.836.11-1.24.044-.758.044-1.063a6.11,6.11,0,0,0-.061-.868,2.706,2.706,0,0,0-.212-.761,1.382,1.382,0,0,0-.424-.54,1.148,1.148,0,0,0-.705-.2,1.517,1.517,0,0,0-.572.11,2.988,2.988,0,0,0-.543.276,3.643,3.643,0,0,0-.5.374c-.16.139-.308.27-.441.395v.255c0,.316-.015.65-.041,1s-.052.688-.084,1.025-.058.665-.084.975-.038.6-.038.856a2.194,2.194,0,0,0,.055.546.708.708,0,0,0,.177.334.608.608,0,0,0,.319.168,1.889,1.889,0,0,0,.476.049h.467v.4c-.293.012-.569.02-.824.026s-.5.023-.732.041-.459.041-.676.073a4.93,4.93,0,0,0-.659.139c.052-.328.1-.7.163-1.112s.107-.833.157-1.254.087-.836.116-1.24.041-.758.041-1.063a6.573,6.573,0,0,0-.055-.868,2.612,2.612,0,0,0-.212-.761,1.4,1.4,0,0,0-.433-.54,1.166,1.166,0,0,0-.711-.2,1.541,1.541,0,0,0-.592.119,2.908,2.908,0,0,0-.56.3,5.277,5.277,0,0,0-.514.4c-.165.148-.319.279-.462.4-.02.273-.041.56-.058.853s-.032.6-.046.891-.026.581-.035.859-.012.534-.012.775c0,.366.009.665.026.891a1.393,1.393,0,0,0,.125.537.536.536,0,0,0,.311.264,2,2,0,0,0,.575.067h.444v.4h-.163c-.534,0-1.019.02-1.46.058a7.859,7.859,0,0,0-1.272.221q.2-1.245.308-2.561c.073-.877.11-1.78.11-2.7,0-.224-.009-.444-.029-.659a1.507,1.507,0,0,0-.165-.575,1.071,1.071,0,0,0-.418-.409,1.61,1.61,0,0,0-.781-.157h-.154v-.4c.255-.012.488-.023.7-.041a5.89,5.89,0,0,0,.639-.067c.212-.029.435-.073.668-.125s.5-.128.793-.218c-.052.256-.1.525-.16.813s-.093.546-.122.787c.29-.267.56-.5.813-.7a5.691,5.691,0,0,1,.74-.5,3.292,3.292,0,0,1,.726-.3,2.809,2.809,0,0,1,.775-.1,2.393,2.393,0,0,1,.494.058,1.684,1.684,0,0,1,.508.215,1.655,1.655,0,0,1,.444.444,2.108,2.108,0,0,1,.3.746q.409-.366.766-.644a5.352,5.352,0,0,1,.7-.459,3.35,3.35,0,0,1,.691-.273,3.1,3.1,0,0,1,.749-.087,2.4,2.4,0,0,1,.578.081,1.416,1.416,0,0,1,.589.325,1.928,1.928,0,0,1,.459.7,3.067,3.067,0,0,1,.186,1.176c0,.316-.012.65-.038,1s-.052.688-.084,1.025-.061.665-.084.975-.041.6-.041.856a2.342,2.342,0,0,0,.055.546.738.738,0,0,0,.18.334.6.6,0,0,0,.319.168,1.874,1.874,0,0,0,.476.049H58.9Z" transform="translate(-32.216 -197.84)" fill="#1a1a1a"/>
      <path id="Tracé_22" data-name="Tracé 22" d="M51.427,215.691c.017-.119.041-.258.064-.421s.052-.351.081-.572.058-.476.084-.758.058-.607.087-.97q.057-.784.11-1.692c.035-.607.064-1.219.09-1.843s.044-1.231.058-1.838.02-1.161.02-1.678a1.889,1.889,0,0,0-.334-1.257,1.339,1.339,0,0,0-1.06-.383h-.163v-.4a9.016,9.016,0,0,0,.906-.058c.293-.026.56-.067.8-.113s.459-.09.647-.139a3.909,3.909,0,0,0,.45-.139c-.049.256-.1.514-.148.781s-.093.546-.134.833a8.91,8.91,0,0,1,1.774-1.231,3.261,3.261,0,0,1,1.417-.383,2.336,2.336,0,0,1,1.931.816,3.661,3.661,0,0,1,.665,2.357,4.662,4.662,0,0,1-.363,1.843,4.305,4.305,0,0,1-1.007,1.466,4.6,4.6,0,0,1-1.539.967,5.317,5.317,0,0,1-1.948.348c-.273,0-.488-.006-.647-.017s-.287-.02-.383-.032q-.048,1.023-.049,1.87c0,.38.009.7.029.952a1.63,1.63,0,0,0,.148.61.67.67,0,0,0,.363.328,1.967,1.967,0,0,0,.676.093h.261v.4c-.27,0-.525,0-.764,0s-.47.012-.7.029-.459.044-.691.078A6.7,6.7,0,0,0,51.427,215.691Zm1.533-5.255a3.907,3.907,0,0,0,.685.194,3.961,3.961,0,0,0,.827.084,2.745,2.745,0,0,0,1.245-.279,2.868,2.868,0,0,0,.958-.787,3.575,3.575,0,0,0,.615-1.2,5.086,5.086,0,0,0,.218-1.53,3.593,3.593,0,0,0-.171-1.184,2.475,2.475,0,0,0-.441-.816,1.708,1.708,0,0,0-.624-.473,1.8,1.8,0,0,0-.72-.151,1.948,1.948,0,0,0-.662.119,3.91,3.91,0,0,0-.656.3,5.3,5.3,0,0,0-.586.395c-.18.142-.34.276-.476.4Z" transform="translate(-22.983 -197.84)" fill="#1a1a1a"/>
      <path id="Tracé_23" data-name="Tracé 23" d="M56.059,212.773a6.477,6.477,0,0,0,.038.79,1.016,1.016,0,0,0,.157.47.584.584,0,0,0,.34.226,2.266,2.266,0,0,0,.581.061h.366v.4c-.273.012-.528.02-.766.023s-.47.017-.7.035-.459.041-.691.073a5.919,5.919,0,0,0-.737.148c.067-.7.131-1.425.189-2.163s.116-1.475.168-2.195.093-1.425.131-2.1.067-1.309.093-1.893.046-1.1.061-1.562.02-.83.02-1.112a5.2,5.2,0,0,0-.052-.819,1.084,1.084,0,0,0-.186-.493.7.7,0,0,0-.377-.244,2.821,2.821,0,0,0-.627-.061h-.314v-.4c.273-.012.528-.032.769-.052s.476-.058.705-.1.462-.078.694-.128.479-.11.74-.171c-.07.72-.131,1.463-.189,2.23s-.107,1.521-.151,2.27-.087,1.475-.119,2.174-.061,1.347-.081,1.939-.035,1.115-.046,1.576S56.059,212.511,56.059,212.773Z" transform="translate(-16.725 -201.503)" fill="#1a1a1a"/>
      <path id="Tracé_24" data-name="Tracé 24" d="M60.569,206.584q-.91,0-1.838-.07c-.618-.044-1.263-.1-1.931-.16a5.853,5.853,0,0,0-.052.763,4.542,4.542,0,0,0,.238,1.539,2.512,2.512,0,0,0,.61.961,2.1,2.1,0,0,0,.862.488,3.775,3.775,0,0,0,1.013.134,4.038,4.038,0,0,0,.633-.044,3.956,3.956,0,0,0,1.234-.421,6.178,6.178,0,0,0,.676-.409l.221.331a8.036,8.036,0,0,1-1.687,1.129,4.146,4.146,0,0,1-1.791.4,3.251,3.251,0,0,1-1.373-.282,3.138,3.138,0,0,1-1.031-.766,3.356,3.356,0,0,1-.644-1.118,3.9,3.9,0,0,1-.226-1.33,4.622,4.622,0,0,1,.311-1.7,4.4,4.4,0,0,1,.842-1.364,4,4,0,0,1,1.228-.909,3.369,3.369,0,0,1,1.463-.331,2.87,2.87,0,0,1,1.289.258,2.336,2.336,0,0,1,.824.668,2.648,2.648,0,0,1,.444.9,3.678,3.678,0,0,1,.131.949v.168a.794.794,0,0,1-.017.163Q61.257,206.584,60.569,206.584Zm-1.539-2.662a1.81,1.81,0,0,0-.778.16,2,2,0,0,0-.613.441,2.537,2.537,0,0,0-.453.647,4.53,4.53,0,0,0-.293.784c.4.012.743.02,1.016.026s.511.009.7.009h.842c.2,0,.4,0,.6-.009s.441-.015.714-.026v-.084a2.44,2.44,0,0,0-.128-.827,1.71,1.71,0,0,0-.357-.61,1.558,1.558,0,0,0-.552-.377A1.818,1.818,0,0,0,59.031,203.922Z" transform="translate(-13.435 -197.84)" fill="#1a1a1a"/>
    </g>
  </g>
</svg>
