<?xml version="1.0" encoding="UTF-8"?>
<svg width="44px" height="99px" viewBox="0 0 44 99" version="1.1" xmlns="http://www.w3.org/2000/svg" xmlns:xlink="http://www.w3.org/1999/xlink">
    <!-- Generator: Sketch 55.2 (78181) - https://sketchapp.com -->
    <title>mouse_scroll</title>
    <desc>Created with Sketch.</desc>
    <g id="Page-1" stroke="none" stroke-width="1" fill="none" fill-rule="evenodd">
        <g id="mouse_scroll" fill="#9B9B9B" fill-rule="nonzero">
            <g id="Group">
                <g>
                    <path d="M4,22.004355 L4,22.004355 L4,47.995645 C4,57.9442689 12.056121,66 22,66 C31.942622,66 40,57.9403509 40,47.995645 L40,22.004355 C40,12.0557311 31.943879,4 22,4 C12.057378,4 4,12.0596491 4,22.004355 L4,22.004355 Z M0,22.004355 C0,9.8516853 9.847064,0 22,0 C34.1502645,0 44,9.8438387 44,22.004355 L44,47.995645 C44,60.1483147 34.152936,70 22,70 C9.8497355,70 0,60.1561613 0,47.995645 L0,22.004355 L0,22.004355 Z" id="Shape"></path>
                    <path d="M20,16.0085302 C20,14.8992496 20.8877296,14 22,14 C23.1045695,14 24,14.9019504 24,16.0085302 L24,23.9914698 C24,25.1007504 23.1122704,26 22,26 C20.8954305,26 20,25.0980496 20,23.9914698 L20,16.0085302 Z" id="Path"></path>
                    <path d="M22,93.5787804 L36.7927304,78.7860499 C37.573779,78.0050013 38.840109,78.0050013 39.6211576,78.7860499 C40.4022061,79.5670985 40.4022061,80.8334285 39.6211576,81.614477 L23.4142136,97.8214211 C23.0236893,98.2119453 22.5118446,98.4072075 22,98.4072075 C21.4881554,98.4072075 20.9763107,98.2119453 20.5857864,97.8214211 L4.3312722,81.566907 C3.5502236,80.7858584 3.5502236,79.5195284 4.3312722,78.7384798 C5.1123208,77.9574313 6.3786508,77.9574313 7.1596993,78.7384798 L22,93.5787804 Z" id="Path"></path>
                </g>
            </g>
        </g>
    </g>
</svg>